<svg xmlns="http://www.w3.org/2000/svg" viewBox="0 0 500 500"><g id="freepik--background-complete--inject-64"><g><path d="M42.8003,207.9902c6.1907,0,160.6891-1.0761,204.32879-1.0761,3.0527,0-.805-5.2843-2.4876-5.6522-5.3672-1.1752-10.9563-1.2362-16.40949-1.8002-5.47311-.5699-10.56341-1.7752-15.63851-3.9188-4.2927-1.8118-8.5771-3.9086-13.2284-4.6331-8.9908-1.4095-16.8776,3.4618-25.3099,5.6128-5.4807,1.3962-10.4556,.8329-15.32819-2.0945-3.89941-2.3379-7.44181-5.1424-11.518-7.2083-15.47961-7.8175-34.33671-8.5399-50.48611-2.313-3.8604,1.4949-7.5828,3.3789-11.0443,5.6536-4.1175,2.7011-7.6689,6.1561-11.8004,8.8255-9.15219,5.9228-20.4651,3.9956-30.446,7.39-.5491,.183-1.1664,1.2143-.6319,1.2143Z" style="fill:#ebebeb;"></path><path d="M276.79809,58.696c8.1855,0,145.9291,.9064,154.5857,.6308,.62221-.0176,.9554-.933,.3378-1.2397-5.4572-2.7019-11.6475-2.1596-17.3179-4.0707-3.3374-1.1241-5.386-3.3062-7.7014-5.8082-1.9998-2.1641-4.3194-3.8217-7.168-4.6793-2.5196-.7555-5.2437-.8532-7.8035-.2445-2.7951,.6667-5.2215,2.2664-7.8879,3.2752-6.617,2.4975-13.0474,.1244-17.7712-4.7728-3.8973-4.0351-7.7279-7.8435-13.0249-10.0165-4.4351-1.822-9.3591-2.1998-13.7984-.1912-5.0527,2.2887-8.5191,6.8926-13.2651,9.6611-5.626,3.2885-12.3541,2.5108-18.5668,3.5018-6.2303,.9955-10.9851,6.2259-16.43349,9.239-1.862,1.0309-3.76841,1.893-5.94141,1.8397-1.2177-.0311-2.4131-.36-3.6174-.511-1.8754-.2311-3.6573-.1777-4.9194,1.3865-.3067,.3821-.2439,1.9998,.2933,1.9998Z" style="fill:#ebebeb;"></path><path d="M73.07859,117.262c5.9763,0,106.5421,.6618,112.8623,.4607,.4543-.0129,.6976-.6813,.2466-.9052-3.9843-1.9726-8.5038-1.5768-12.6438-2.9719-2.4365-.8209-3.9323-2.414-5.6226-4.2406-1.46009-1.58-3.1536-2.7902-5.2334-3.4164-1.8396-.5515-3.8284-.6229-5.6973-.1784-2.0407,.4867-3.8122,1.6547-5.7588,2.3912-4.8311,1.8234-9.5259,.0908-12.9748-3.4846-2.8454-2.946-5.6421-5.7265-9.5095-7.313-3.238-1.3303-6.8328-1.6062-10.0741-.1397-3.689,1.6711-6.2197,5.0323-9.6848,7.0535-4.1075,2.401-9.0196,1.8332-13.55539,2.5568-4.54881,.7267-8.02031,4.5454-11.99811,6.7452-1.3594,.7527-2.7513,1.3822-4.3378,1.3432-.889-.0227-1.7618-.2628-2.64109-.3731-1.36911-.1687-2.67021-.1298-3.5916,1.0123-.2238,.279-.1781,1.46,.2142,1.46Z" style="fill:#ebebeb;"></path><path d="M248.74519,262.8579c5.9763,0,106.5422,.6618,112.8624,.4607,.4542-.0129,.6976-.6813,.2466-.9052-3.9843-1.9726-8.5038-1.5768-12.6438-2.9719-2.4366-.8209-3.9323-2.414-5.6227-4.2406-1.46-1.58-3.1535-2.7902-5.2333-3.4164-1.8396-.5515-3.8285-.6229-5.6973-.1784-2.0407,.4867-3.8123,1.6547-5.7589,2.3912-4.831,1.8234-9.5258,.0908-12.9747-3.4846-2.8454-2.946-5.6422-5.7265-9.5096-7.313-3.23789-1.3303-6.8328-1.6061-10.074-.1396-3.6891,1.671-6.2197,5.0322-9.6848,7.0534-4.1075,2.401-9.0196,1.8332-13.5554,2.5568-4.5488,.7267-8.0203,4.5454-11.9981,6.7452-1.3594,.7527-2.7513,1.3822-4.3378,1.3432-.889-.0227-1.7619-.2628-2.6411-.3731-1.3691-.1687-2.6702-.1298-3.5916,1.0123-.2238,.279-.17809,1.46,.2141,1.46Z" style="fill:#ebebeb;"></path><path d="M91.946,346.6193c5.97629,0,106.54219,.6619,112.86239,.4608,.4542-.0129,.69761-.6813,.24661-.9052-3.98431-1.9727-8.50381-1.5768-12.64381-2.972-2.4366-.8208-3.9323-2.4139-5.6227-4.2405-1.46-1.5801-3.15349-2.7902-5.2333-3.4164-1.8396-.5515-3.8285-.6229-5.6973-.1784-2.0407,.4867-3.8123,1.6547-5.75889,2.3911-4.831,1.8235-9.52581,.0909-12.97471-3.4845-2.8454-2.946-5.6422-5.7265-9.5096-7.313-3.2379-1.3303-6.8328-1.6062-10.074-.1397-3.6891,1.671-6.21969,5.0323-9.6848,7.0535-4.1075,2.4009-9.0196,1.8332-13.5554,2.5567-4.5488,.7268-8.0203,4.5455-11.9981,6.7453-1.35939,.7527-2.7513,1.3822-4.3378,1.3432-.889-.0228-1.7619-.2628-2.6411-.3731-1.3691-.1687-2.6702-.1298-3.5916,1.0123-.2238,.279-.1781,1.4599,.21411,1.4599Z" style="fill:#ebebeb;"></path><path d="M300.198,302.6719c.11639,.336,158.50449,0,156.50579,0-.9112,0,1.3826-1.3633,.491-1.8027-5.156-2.5586-10.7966-2.6297-16.4113-3.1465-3.2758-.2973-6.6421-.7755-9.5884-2.3261-2.98509-1.5636-4.8459-4.2773-6.96509-6.7842-6.54531-7.7728-16.96061-11.824-27.04651-10.2474-11.2618,1.7639-20.1394,10.3443-31.4207,11.9209-6.7777,.9497-13.1872-1.6735-19.80979-2.5975-5.45331-.7559-9.99551,.3037-14.87371,2.7202-3.573,1.7704-6.8746,3.2629-10.9129,3.5408-3.1013,.2196-6.2156-.1358-9.32339-.1681-4.97521-.0453-9.88561,2.1101-13.71711,5.4828-.504,.4458-2.0991,3.4078,3.07211,3.4078Z" style="fill:#ebebeb;"></path></g></g><g id="freepik--Speed_lines--inject-64"><g><path d="M118.6557,267.38559c23.80364-14.56317,50.65276-30.10467,75.13093-43.54177-23.8331,14.56163-50.65566,30.1252-75.13093,43.54177h0Z" style="fill:#263238;"></path><path d="M194.02728,121.3437c10.46955-6.85576,21.37557-13.17676,32.53117-18.85328-10.47215,6.85785-21.3768,13.17712-32.53117,18.85328h0Z" style="fill:#263238;"></path><path d="M98.26369,271.1366c11.08166-7.21052,22.60149-13.88726,34.36944-19.91868-11.08452,7.21284-22.60291,13.88772-34.36944,19.91868h0Z" style="fill:#263238;"></path><path d="M172.08121,124.2974c11.08163-7.21055,22.60148-13.88725,34.36943-19.91869-11.08453,7.21283-22.6029,13.88771-34.36943,19.91869h0Z" style="fill:#263238;"></path><path d="M337.78339,91.9012c7.94747-5.39405,16.32751-10.25105,24.95985-14.46539-7.94881,5.39537-16.32779,10.25091-24.95985,14.46539h0Z" style="fill:#263238;"></path><path d="M119.9583,245.09109c13.43214-8.56121,27.30627-16.60188,41.41542-24.00211-13.4363,8.56384-27.30821,16.60311-41.41542,24.00211h0Z" style="fill:#263238;"></path><path d="M337.00079,84.6177c11.08165-7.21055,22.60149-13.88727,34.36946-19.91869-11.08456,7.21281-22.60292,13.88772-34.36946,19.91869h0Z" style="fill:#263238;"></path><path d="M348.54001,397.58859c17.35326-10.83377,35.16452-21.15625,53.1962-30.82979-17.35909,10.83737-35.16753,21.15809-53.1962,30.82979h0Z" style="fill:#263238;"></path><path d="M362.98828,378.2406c11.08162-7.21052,22.60142-13.88725,34.36933-19.91869-11.08449,7.21283-22.60285,13.88775-34.36933,19.91869h0Z" style="fill:#263238;"></path></g></g><g id="freepik--Character--inject-64"><g><g><g><g><g><path d="M219.11989,126.333c29.6465-3.6087,41.6153-9.9024,51.711-13.0405,7.5123-2.3352,29.1296-16.5066,43.954-29.6064,3.8566-3.4079-20.7804-29.3554-24.5844-25.3796-3.8737,4.0488-28.7476,26.2874-34.8371,29.7324-3.5315,1.9978-34.5487,17.1213-43.4158,20.528-10.66159,4.0964-8.049,19.6189,7.1723,17.7661Z" style="fill:#FFC72C;"></path><path d="M314.78249,83.689c-14.8211,13.097-36.4372,27.269-43.9517,29.6074-.275,.0846-.5474,.1767-.8223,.2612-3.762-2.5729-7.6032-5.355-8.6947-6.6132-1.6704-1.9479-5.6277-12.3804-7.6776-17.9942,.7964-.4126,1.3836-.7207,1.72381-.9116,6.09529-3.4437,30.97049-25.6821,34.83789-29.73,3.807-3.9769,28.4395,21.9691,24.5846,25.3804Z" style="opacity:.1;"></path></g><g><g><path d="M290.06189,57.9677s4.3245,14.9301,7.3892,19.5718c3.0648,4.6417,14.8617,8.4881,14.8617,8.4881,0,0,10.3363-7.2146,15.4426-21.6895,.7639-2.1654,15.7011-.5545,22.0328-4.4943,6.33181-3.9399,5.3923-15.6391-3.5847-18.9324-8.977-3.2934-26.0792-6.2947-37.2869-.7788s-18.8547,17.8351-18.8547,17.8351Z" style="fill:#FFC72C;"></path><path d="M313.95479,80.9085c1.4706-1.6772,2.4139-3.7134,3.3798-5.7045,1.9153-4.018,3.69041-8.1087,5.6775-12.102,.4145-.9387,1.0585-1.8803,1.3684-2.8515,.47751-1.9693-1.7543-2.8203-3.4534-2.4603-2.1087,.3518-3.8109,1.7111-5.6595,2.8301-2.8612,1.7562-5.8828,3.2476-8.8572,4.7732-1.9762,1.015-3.9988,1.9664-5.7163,3.3897,1.4753-1.697,3.4806-2.8299,5.3293-4.0706,3.423-2.0569,8.04-4.9114,11.29161-7.1583,2.10929-1.211,4.80789-2.1052,7.14609-.6823,1.2058,.7478,1.8581,2.3983,1.43,3.7648-.2749,.9897-1.0854,2.2233-1.5367,3.1531-1.8581,3.4845-4.3343,8.4324-6.3343,11.7829-1.19009,1.8811-2.3346,3.8941-4.0653,5.3357h0Z" style="fill:#263238;"></path></g><path d="M290.06189,57.9677s-2.6023,1.3541-3.7536,3.8229c0,0,3.8108,17.0067,7.9139,20.5729,4.103,3.5661,13.7845,7.022,13.7845,7.022,0,0,3.1705-.9447,4.3061-3.3579,0,0-12.4566-4.4839-15.0086-8.8536-3.6068-6.1757-7.2423-19.2063-7.2423-19.2063Z" style="fill:#455a64;"></path></g><path d="M257.25189,118.0478c-8.515,2.8706-20.0267,6.0799-38.1327,8.2894-14.87719,1.8093-17.7141-12.9902-7.8648-17.4755l45.9975,9.1861Z" style="opacity:.1;"></path></g><g><path d="M215.16439,205.9063s51.619,8.7781,66.3947-15.9674c0,0,4.8782-4.5838,2.0565-10.6747-3.578-7.7234-15.5909-18.4748-22.2347-32.0288-5.1626-10.5325-10.2294-20.6582-18.6501-27.5438-6.5261-5.3363-26.5313-11.0203-31.8772-11.015-6.8373,.0069-17.0308,3.5188-21.2242,10.5629-5.4556,9.164-12.133,23.1656-10.5581,31.5077,1.8618,9.8625,7.3924,19.0884,15.1752,29.3658,9.6176,12.7002,8.9931,16.257,10.27151,18.522,3.34679,5.9296,10.64639,7.2713,10.64639,7.2713Z" style="fill:#FFC72C;"></path><g><path d="M223.63259,137.0949s-1.9022,2.8312-3.0903,6.9102c-1.8194,6.2464,.1578,14.4029,6.3352,13.8956,0,0,2.7278-4.3697-1.8309-8.4801-3.4098-3.0744-1.414-12.3257-1.414-12.3257Z" style="fill:#fff;"></path><path d="M244.24259,145.1408s-3.0823,.1215-6.6947,1.4303c-5.53189,2.0043-10.43289,7.7999-6.7665,12.04,0,0,4.6462-.3396,5.2153-5.8615,.4256-4.1302,8.2459-7.6088,8.2459-7.6088Z" style="fill:#fff;"></path><path d="M247.35709,168.0916s-1.0458-2.4721-3.221-5.011c-3.3309-3.888-9.5548-6.0978-11.8805-1.8104,0,0,1.7036,3.6783,6.3739,2.4454,3.4934-.9222,8.7276,4.376,8.7276,4.376Z" style="fill:#fff;"></path></g><path d="M281.55559,189.9434c-14.7744,24.7422-66.3957,15.968-66.3957,15.968,0,0-7.2948-1.3474-10.6411-7.2734-1.2803-2.2728-.659-5.8256-10.2705-18.5215-2.4981-3.2966-4.7664-6.4817-6.75-9.6198,10.5154,8.1868,26.7598,10.3845,41.4958,8.6325,11.2285-1.3335,31.4265-9.2733,48.6411-8.7004,2.6079,3.2876,4.776,6.23,5.9836,8.8399,2.8179,6.0897-2.0632,10.6747-2.0632,10.6747Z" style="opacity:.1;"></path></g><g><path d="M187.56879,123.6411c-7.1495,7.9473-15.1114,30.8184-16.19579,34.2425-1.08441,3.4241-1.08591,17.2851,.14579,19.7222,1.2317,2.4372,10.0511,8.6276,14.6859,7.2643,4.6348-1.3632,12.603-8.5416,14.6125-9.8325,2.0095-1.291-13.2484-51.3965-13.2484-51.3965Z" style="fill:#FFC72C;"></path><g><path d="M194.24649,180.113c3.2773-2.8783,7.8602-3.5031,12.0523-3.0178-1.4994,.3093-3.1593,.5085-4.6769,.7018-2.5555,.3807-5.0057,1.2869-7.3754,2.316h0Z" style="fill:#263238;"></path><path d="M199.11079,177.9396c1.54621-.2116,3.067-.0167,4.5063,.5878-1.5549,.2139-3.0579,.0146-4.5063-.5878h0Z" style="fill:#263238;"></path></g><path d="M176.22958,144.78619c2.645-3.02943,7.24941-6.10027,11.19902-3.58943,6.81813,5.03716,10.46865,13.366,12.33028,21.41114,.85718,4.08567,1.20585,8.26015,1.05825,12.4297-.49203-8.2049-2.24295-16.48425-6.23167-23.72558-1.91991-3.59483-4.36553-7.03948-7.58419-9.47987-3.6341-2.45633-7.97827,.41185-10.7717,2.95404h0Z" style="fill:#263238; opacity:.1;"></path></g><g><g><path d="M215.90649,128.7476c-4.0014,1.4938-14.8918-3.3671-20.2511-8.6987-.3655-.3677-1.0543-5.161-2.1666-10.9456-.6889-3.5078-1.5384-7.3975-2.56979-10.8906l23.48129-1.1474s.0086,7.959,1.8448,14.0382c.1587,.5065,.3491,.965,.5738,1.3891,.0266,.0638,.0695,.1375,.1014,.2279,1.2484,2.592,5.2518,13.688-1.0138,16.0271Z" style="fill:#eb9481;"></path><path d="M216.81619,112.4954c.0282,.0649,.0736,.1272,.107,.2262-.6646,.3013-1.3884,.5601-2.2221,.7849-12.5399,3.3935-20.0703-10.8849-22.0833-15.3779l21.7899-1.0705s.00731,7.9598,1.83131,14.052c.169,.4946,.34919,.9527,.57719,1.3853Z" style="fill:#263238;"></path></g><g><path d="M182.61829,71.6092c-1.4271,8.3483,5.7769,31.0194,12.1522,35.4659,9.24251,6.446,22.8986,5.4333,28.0029-5.3392,4.948-10.4424-4.9635-39.8217-11.94739-43.7106-10.286-5.7279-26.09961,1.253-28.20771,13.5839Z" style="fill:#eb9481;"></path><g><path d="M188.65409,95.6083s-1.24709,3.3603-1.394,5.552c-.0945,1.4111,1.3631,6.3258,2.0574,7.4526,.8178,1.3274-2.01649,9.5771-.4456,11.9192,1.5709,2.3421,5.9389,2.4074,7.2893,3.9135s15.5365,7.3391,24.1071,3.9992c3.7596-1.4652,4.6782-8.8952,4.7835-9.772,.1053-.8767,2.938-3.9432,2.9356-5.9512-.0023-2.008-4.0299-6.6391-3.0545-8.1993,.9754-1.5603,1.9147-7.991-.8501-11.6288,0,0-1.7215,6.5714-6.8965,8.8118s-9.8585,1.5579-13.2939,.2509c-3.8553-1.4668-7.49-6.0291-15.2383-6.3479Z" style="fill:#263238;"></path><g style="opacity:.2;"><path d="M210.867,113.5818s-8.74071,2.6771-10.90331,2.5651c-1.723-.0835-8.1649-3.2511-10.724-4.5359,.2236-1.4331,.3375-2.5677,.0755-2.9934,2.47781,2.9143,8.6235,5.3304,12.1504,5.5375,3.5245,.1996,9.40141-.5733,9.40141-.5733Z"></path><path d="M225.53459,117.6865c-.2684,.428-.4538,.7774-.4833,.9897-.0217,.235-.1148,.9073-.30529,1.8149-1.917,1.213-4.01631,2.3107-5.745,2.6844-2.039,.428-9.84241-.3821-10.43121-.4528,.4571-.0197,6.0255-.2835,9.3285-1.063,2.1625-.512,5.2019-2.0709,7.6363-3.9732Z"></path><path d="M224.93759,104.5243c-.4015,.6331,.0252,1.7705,.6798,3.0331-.9919,.757-2.4149,1.7356-3.6785,2.1628-2.2246,.7522-10.0883,1.7584-10.0883,1.7584,0,0,7.7739-2.5189,9.3539-3.3819,1.0609-.5779,2.79551-2.505,3.8083-3.6991-.0276,.0431-.0477,.0836-.0752,.1267Z"></path><path d="M195.00269,117.4036s4.6852,1.3482,7.1518,1.1335c2.4666-.2148,11.4393-1.8976,11.4393-1.8976,0,0-9.3714,3.4174-11.07879,3.5819-1.70741,.1644-7.51231-2.8178-7.51231-2.8178Z"></path></g></g><g><g><path d="M206.747,85.397c-.02991-.0544-.09721,.1101-.07561,.1721,.522,1.5154,.86461,3.339-.3629,4.2758-.0384,.0291-.0098,.1045,.0394,.0818,1.6165-.7609,1.137-3.1774,.39911-4.5297Z" style="fill:#263238;"></path><path d="M204.88539,84.2216c-2.51939,.5746-1.1848,5.572,1.1498,5.0398,2.2976-.5246,.9626-5.5215-1.1498-5.0398Z" style="fill:#263238;"></path></g><g><path d="M215.79319,82.641c-.00419-.0623,.1403,.0407,.1556,.1046,.3644,1.561,1.0444,3.2876,2.5821,3.4277,.0477,.004,.06411,.0835,.0102,.0897-1.7732,.216-2.6529-2.0848-2.7479-3.622Z" style="fill:#263238;"></path><path d="M216.744,80.6548c2.43869-.8536,3.96729,4.088,1.70769,4.8785-2.224,.779-3.75269-4.1626-1.70769-4.8785Z" style="fill:#263238;"></path></g><path d="M202.087,82.2789c.72619-.0229,1.39179-.1652,2.10739-.262,.8078-.1097,1.4621-.1134,2.09861-.6771,.34139-.3027,.373-.9724,.11029-1.3312-.6115-.8365-1.6337-.9483-2.6112-.8564-1.061,.1002-1.8526,.4484-2.6105,1.1943-.7349,.7234-.0523,1.9626,.90541,1.9324Z" style="fill:#263238;"></path><path d="M218.60459,76.874c-.6121,.3912-1.2421,.6501-1.887,.9741-.7287,.3658-1.2708,.7322-2.1142,.6265-.4528-.0563-.8565-.591-.8432-1.0361,.0317-1.0356,.81281-1.705,1.6714-2.1813,.9316-.5168,1.7819-.6769,2.8286-.4891,1.0146,.1815,1.1517,1.5897,.3444,2.1059Z" style="fill:#263238;"></path><path d="M209.62989,100.0488c.4677,.2634,.9709,.6638,1.545,.5607,.55111-.0982,1.1176-.5101,1.5603-.8337,.0434-.0317,.1071,.0067,.0882,.0614-.2433,.7018-.98939,1.2995-1.7405,1.3653-.7335,.0647-1.2421-.4484-1.5834-1.044-.04749-.0835,.0623-.148,.1304-.1097Z" style="fill:#263238;"></path><path d="M210.01929,94.9798c1.2253,1.1119,2.6953,1.5061,4.1444,1.4052,.648-.0407,1.3006-.1923,1.9191-.4198,.1241-.0359,.2453-.083,.35121-.138,.10939-.0439,.20759-.0843,.32529-.1426,.17371-.0747,.2329-.2507,.2181-.4297l-.0036-.0111c-.016-.0564-.029-.1018-.0567-.1547l-.0032-.0115-.039-.1348c-.2856-1.2008-.8857-2.9824-.8857-2.9824,.494,.1016,2.9812,.5077,2.7795-.1057-1.68469-5.0726-3.55769-10.7137-6.3056-15.406-.0826-.1589-.3319-.0503-.2719,.1154,1.426,4.939,3.711,9.5945,5.22281,14.5329-.78061-.0799-2.06971-.2695-2.68971-.0907-.15629,.094,1.22071,3.4229,1.30571,3.9722,0,0,.00669,.0229,.00519,.0596-1.9341,.7908-3.6051,.5894-5.9083-.2363-.1385-.0574-.2336,.0794-.1076,.178Z" style="fill:#263238;"></path><g><path d="M215.21849,95.549s-.6762,1.7083-1.9856,2.6093c-.4818,.3338-1.0358,.5624-1.6805,.5629-1.3226,.0053-1.65639-1.1207-1.6889-2.1522-.02949-.8473,.1571-1.634,.1571-1.634,0,0,2.2559,1.2077,5.1979,.614Z" style="fill:#263238;"></path><path d="M213.23289,98.1583c-.4818,.3338-1.0358,.5624-1.6805,.5629-1.3226,.0053-1.65639-1.1207-1.6889-2.1522,1.3613-.218,2.9131,.3313,3.3694,1.5893Z" style="fill:#ffa2be;"></path></g></g><g><g style="opacity:.9;"><path d="M194.22019,84.3274c-.3656,.6352-.2158,7.7727,.0622,8.2663,.2779,.4934,3.4537,2.0457,4.6641,2.2407,1.2103,.1951,8.07651-.3583,12.5448-1.5589,1.0752-.2889,2.77671-4.5183,2.9213-5.1298,.1445-.6115,1.3583-1.4074,2.2547-.7058s2.6085,2.4242,3.9413,2.1282,4.7396-3.7338,5.095-4.9372c.3553-1.2034-1.6807-10.0732-1.9448-10.266-.2639-.1928-4.2819,3.3636-10.5525,6.371-6.2705,3.0074-18.9861,3.5915-18.9861,3.5915Z" style="fill:#263238;"></path><g><path d="M201.71079,83.6088l-4.4856,10.6481c-.9034-.3775-1.8729-.876-2.453-1.2448l3.67181-9.0154c.98719-.0977,2.09809-.2288,3.26679-.3879Z" style="fill:#37474f;"></path><path d="M223.92329,74.7916c.2356,.7467,.624,2.3691,.9976,4.0977l-5.2436,10.6009c-.8068-.2416-1.6508-.9174-2.3226-1.4828l6.5686-13.2158Z" style="fill:#37474f;"></path><path d="M211.169,81.5576l-6.13551,12.9007c-.5832,.0707-1.1588,.1388-1.7041,.1967l5.9527-12.5184c.656-.1797,1.2916-.3693,1.88691-.579Z" style="fill:#37474f;"></path><path d="M197.84059,84.0574l-3.5577,8.5299c-.0484-.0932-.0901-.3911-.1247-.8178l3.1345-7.6618c.17931-.0184,.3585-.0369,.5479-.0503Z" style="fill:#37474f;"></path><path d="M225.18949,80.2572c.0541,.2599,.0982,.5149,.1472,.7597l-4.0186,8.2389c-.26709,.1577-.5015,.2623-.6958,.3111l4.5672-9.3097Z" style="fill:#37474f;"></path></g></g><path d="M182.03739,87.2683s-1.6648-3.1317-.8752-3.314c.7897-.1825,6.5085-.7542,11.0993-1.1727,4.7374-.4318,14.5564-.2452,19.681-2.5661,6.1386-2.7802,11.3892-8.008,11.6737-7.8668,.2846,.1411,.7414,2.1536,.6707,2.4018-.0708,.2482-4.7567,4.2112-11.3716,7.4052-6.3582,3.0699-18.2962,2.3654-18.696,2.439-.3997,.0736-.1401,6.1544-.1401,6.1544,0,0-.6717-1.2737-1.7391-1.7095-.6248-.2552-5.3845-1.6956-6.0342-1.8461-1.7608-.4082-2.3375-.0965-2.7778,.0264s-1.2325,.4713-1.4907,.0484Z" style="fill:#455a64;"></path></g><g><path d="M182.34919,84.9608s2.16581,7.454,1.9585,7.5702c-.2072,.1163-5.1573-7.6162-5.7282-15.4677-.5453-7.4984,1.3912-16.7263,15.42651-21.6666,14.63359-5.151,25.66379,3.3061,28.79929,18.7595,0,0-2.8648,4.127-10.9452,6.6721s-18.4372,2.6962-19.1327,3.0591c-.69539,.363-.554,3.1664-1.956,3.4354s-4.037-2.4747-4.8427-3.0851c-.80569-.6105-3.9976-.0823-3.5795,.7231Z" style="fill:#FFC72C;"></path><g><path d="M188.28789,61.1958c-1.2493-.444-5.6541,5.6191-4.7803,6.9593,.8737,1.3402,2.003-1.5883,3.1707-3.2684,1.2418-1.7868,3.027-3.1872,1.6096-3.6909Z" style="fill:#263238;"></path><path d="M185.79939,59.8406c-.1362,.046-.2698,.0996-.4136,.1482,1.0471-.843,2.2435-1.6438,3.6118-2.3847,.1266,.05,.2228,.1102,.2762,.1933,.849,1.2391-1.4164,1.322-3.4744,2.0432Z" style="fill:#263238;"></path><path d="M197.98569,54.3122c-1.1144,.4948-2.15569,.9311-2.5686,.6324,.8728-.2614,1.7281-.4747,2.5686-.6324Z" style="fill:#263238;"></path><path d="M208.43519,54.8937c-.6265-.0074-1.4073-.0722-2.18-.0386-1.8209,.076-4.4723,.8376-4.0814-.475,.0574-.1796,.2385-.342,.5107-.4847,2.036,.0367,3.9546,.3746,5.7507,.9983Z" style="fill:#263238;"></path><path d="M194.37089,62.0221c-1.2521,.436-.8911,7.9214,.6292,8.4195,1.5203,.498,.5677-2.4926,.4264-4.5338-.1503-2.1706,.365-4.3803-1.0556-3.8857Z" style="fill:#263238;"></path></g><path d="M222.80659,74.1574s-2.8642,4.1219-10.9487,6.6698c-8.07689,2.5454-18.4373,2.701-19.13289,3.0627-.69561,.3616-.54971,3.1622-1.95041,3.4334-1.4032,.2637-4.0419-2.4782-4.8452-3.0834-.8058-.6129-3.9988-.0814-3.5836,.7226,0,0,2.1664,7.4546,1.9597,7.5666-.204,.1196-5.1551-7.6161-5.7269-15.4665-.2308-3.1765-.0134-6.6733,1.3841-10.021l.3321-.3146c-.83279,6.639,10.0221,12.2352,23.4746,6.2871,13.4524-5.9481,6.4999-16.8603-.3422-19.0915,9.8406,.5513,16.9565,8.3054,19.3794,20.2348Z" style="opacity:.1;"></path></g><g><path d="M193.17189,90.1479s-6.34189-6.7107-9.4625-4.3417c-3.12039,2.3694,2.4217,12.6375,6.6292,13.532,4.2071,.8939,5.1113-2.9844,5.1113-2.9844l-2.278-6.2059Z" style="fill:#eb9481;"></path><path d="M185.37129,88.7103c-.065,.0039-.0642,.095-.0052,.1097,2.9637,.7186,4.8194,3.0935,6.248,5.6293-.9843-.9118-2.2008-1.3112-3.4405-.1164-.0649,.063,.022,.1667,.0982,.1384,1.109-.415,1.9645-.3385,2.874,.4641,.6439,.5681,1.1399,1.3344,1.6436,2.0262,.1677,.2305,.5994,.0301,.4617-.2439-.01009-.0201-.0219-.041-.0327-.0613-.4571-3.5752-3.9665-8.1541-7.8471-7.9461Z" style="fill:#263238;"></path></g></g></g></g><g><g><g><path d="M128.97129,384.6229c3.3128,.4685,86.893-13.5982,89.884-16.3922,1.1552-1.0419-.6795-16.0815-3.1536-31.9045-.0275-.1651-.0549-.33-.0822-.4949-.5026-3.2616-5.6908-31.1589-5.6908-31.1589l-56.5916,10.854,4.59491,30.413,.20429,.9731s-29.33529,17.3141-32.3036,20.7334c-1.7699,2.0474-3.5781,7.8669-4.0162,12.2769-.2899,2.9191,5.8357,4.519,7.1548,4.7001Z" style="fill:#f7a9a0;"></path><g><path d="M218.85939,368.2278c-2.9935,2.8-86.5702,16.8667-89.88839,16.392-1.31991-.1816-7.44031-1.7759-7.15621-4.6992,.441-4.4084,2.25-10.223,4.02221-12.2759,2.96459-3.4222,32.30479-20.7331,32.30479-20.7331,0,0-5.2106-5.5985-4.3165-7.5899,1.2394-2.7599,23.39571-4.9634,24.7704-4.3848,1.7328,.7277,7.45731,8.8472,7.45731,8.8472l30.07519-4.7688c2.23681,14.606,3.8217,28.2306,2.7312,29.2125Z" style="fill:#FFC72C;"></path><g><path d="M127.53769,365.9358c6.2818-5.2051,14.6674-6.6994,20.9236-5.8495,6.0108,.817,12.7091,2.8785,16.525,8.2461,.1101,.1533-.1874,.3872-.33,.2515-9.1201-8.655-25.4712-9.8615-36.878-2.3323-.2297,.1519-.45629-.1374-.2406-.3158Z" style="fill:#263238;"></path><path d="M159.48439,345.9829c5.9788-1.4457,13.4127-.9089,18.254,3.1488,.1874,.1575-.0386,.4217-.2376,.3701-6.0567-1.5625-11.6836-2.4742-17.9517-2.7571-.4417-.0195-.4927-.658-.0647-.7618Z" style="fill:#263238;"></path><path d="M155.26519,348.8403c5.97881-1.4463,13.4121-.9095,18.254,3.1486,.1872,.1571-.0391,.4216-.2379,.37-6.0566-1.5629-11.6832-2.4741-17.952-2.7572-.4416-.0201-.4921-.6578-.0641-.7614Z" style="fill:#263238;"></path><path d="M151.04529,351.6972c5.97871-1.4461,13.4126-.9095,18.2538,3.1485,.18791,.1573-.0388,.4215-.2377,.3704-6.0561-1.5632-11.683-2.4743-17.9516-2.7573-.4416-.0201-.4926-.6581-.0645-.7616Z" style="fill:#263238;"></path><path d="M210.09769,346.1414c6.7909-1.2236,8.7037,9.3281,1.902,10.5536-6.7908,1.2234-8.704-9.3278-1.902-10.5536Z" style="fill:#263238;"></path><path d="M123.7605,376.62509c7.48372-6.9576,12.96466-7.20322,22.6334-6.40764,8.05989,.54772,16.15742,1.58339,24.08337-.43928,11.52372-2.14201,24.24769-4.69807,35.82255-6.92781,3.97725-.78115,7.97725-1.48342,11.91698-2.42068-17.69183,4.50568-35.59707,8.18013-53.57973,11.3506-6.13411,.46243-12.22259-.30207-18.30144-.8042-9.51908-1.01237-14.92321-.83636-22.57513,5.64901h0Z" style="fill:#263238;"></path></g><path d="M218.887,360.2484c.28469,3.4677,.41869,7.5746-.02761,7.9794-2.9935,2.8-86.5702,16.8667-89.88839,16.392-1.31991-.1816-7.44031-1.7759-7.15621-4.6992,.0616-.6073,.1436-1.2387,.258-1.8838,2.3197-2.1759,7.6454-6.4468,13.3759-7.5643,7.93731-1.5442,22.7414,1.6089,29.2238,.82,6.3716-.7797,47.50951-9.4339,54.21451-11.0441Z" style="opacity:.1;"></path></g></g><g><path d="M226.71479,203.1066s-46.43379-14.3656-65.2716-5.7478c-6.8955,3.1544-18.05419,20.3654-17.6178,28.6047,1.0352,19.5458,3.0454,62.4642,5.836,90.429,.3294,3.3006,3.7599,6.1392,4.1107,8.9603,.325,2.6132-2.4312,5.2474-2.0884,7.3449,1.8792,11.4969,6.8245,14.6014,6.8245,14.6014l57.62-8.2838s3.4479-8.2874,3.1071-11.9873c-.2177-2.3626-3.3397-8.1976-4.0987-12.5129-.2731-1.5526,2.3909-7.2937,2.0692-9.0119-3.9421-21.0497-13.1059-51.6359-13.1059-51.6359-1.5767,.4213,23.6654,23.0215,63.9347,4.7341,0,0,30.1052,2.6502,42.0778-9.1269,19.2913-18.9761-11.0567-63.1327-11.0567-63.1327,0,0-55.9075,23.6893-72.3409,16.7648Z" style="fill:#37474f;"></path><path d="M200.875,239.0202c.58009,1.8447,1.14619,3.6973,1.61359,5.5742-.0902-1.7136-.2083-3.4263-.4012-5.1285-.0211-.1863,.2905-.2525,.3295-.064,.4788,2.314,.641,4.6403,.4814,6.9907,.0156,.0747,.0352,.1485,.0505,.2235,.5075,2.5037,.9908,5.0974,1.0244,7.6577,.0019,.1513-.2234,.2084-.2704,.0526-.75479-2.4994-1.1787-5.1226-1.67879-7.6828-.49241-2.5203-.85251-5.0654-1.301-7.5939-.01561-.0875,.126-.1121,.152-.0295Z" style="fill:#263238;"></path><path d="M226.71478,203.1066c5.22348,1.52816,9.97415,4.26988,14.33998,7.47984-5.0502-2.00738-9.68938-4.71231-14.33998-7.47984h0Z" style="fill:#263238;"></path><path d="M310.11529,249.4735c-11.9759,11.7797-42.08429,9.1252-42.08429,9.1252-8.28,3.7603-15.92921,5.7933-22.83221,6.6511l15.8873-65.5603c19.057-5.3377,37.9645-13.3522,37.9645-13.3522,0,0,30.3566,44.1635,11.0647,63.1362Z" style="opacity:.1;"></path></g></g><g><g><path d="M246.16789,353.08c3.3128,.4685,85.78511-13.5072,88.77611-16.3012,1.15519-1.0419-.67951-16.0815-3.15361-31.9046-.0275-.165-.0549-.3299-.0822-.4948-.5027-3.2616-5.6909-31.1589-5.6909-31.1589l-56.5915,10.854,4.5948,30.413,.20441,.973s-25.864,15.646-28.83221,19.0652c-1.77,2.0475-3.5782,7.8669-4.0162,12.2769-.29,2.9192,3.4722,6.0963,4.7913,6.2774Z" style="fill:#f7a9a0;"></path><g><path d="M334.948,336.7759c-2.99341,2.8-85.46221,16.7757-88.78041,16.301-1.3199-.1816-5.0769-3.3532-4.7928-6.2764,.441-4.4085,2.25-10.2231,4.02221-12.276,2.96459-3.4222,28.83349-19.0648,28.83349-19.0648,0,0-5.2106-5.5986-4.31649-7.5899,1.23929-2.7599,31.293-5.612,32.66769-5.0334,1.7328,.7277,7.45731,8.8472,7.45731,8.8472l22.17789-4.1202c2.2368,14.606,3.8216,28.2306,2.73111,29.2125Z" style="fill:#FFC72C;"></path><g><path d="M249.00009,333.3507c8.3363-6.85,19.1107-9.2438,27.0214-8.5979,7.6004,.6211,15.99551,2.7379,20.5058,9.1338,.1302,.1826-.2637,.4914-.4365,.3327-11.05079-10.1205-31.792-10.5526-46.80479-.4935-.30231,.203-.572-.1403-.28591-.3751Z" style="fill:#263238;"></path><path d="M282.05819,313.9811c7.8543-2.5177,17.6407-3.246,24.0466,.0953,.248,.1298-.0471,.4406-.3094,.4218-7.9833-.5644-15.3953-.5331-23.64539,.2557-.58141,.056-.654-.5923-.09181-.7728Z" style="fill:#263238;"></path><path d="M276.53149,317.6483c7.8544-2.5183,17.64-3.2466,24.0467,.0951,.2476,.1294-.0478,.4406-.3098,.4217-7.9831-.5648-15.3947-.5331-23.6459,.2556-.5812,.0554-.6533-.5922-.091-.7724Z" style="fill:#263238;"></path><path d="M271.004,321.315c7.85419-2.518,17.64059-3.2465,24.04629,.0951,.2486,.1296-.04729,.4404-.3095,.4221-7.9824-.5652-15.3945-.5334-23.6453,.2554-.5812,.0554-.654-.5924-.09149-.7726Z" style="fill:#263238;"></path><path d="M328.12029,314.341c4.2145-.7593,6.1231,9.7931,1.9018,10.5536-4.2145,.7592-6.1232-9.7928-1.9018-10.5536Z" style="fill:#263238;"></path><path d="M243.3205,343.50491c6.40364-5.41172,14.80582-7.90357,23.02994-8.78141,3.43629-.23976,6.88677,.21632,10.29834,.5194,7.68247,.68081,15.56356,1.86925,23.1987,.52485,11.45252-2.41775,23.00894-4.3913,34.45803-6.78983-3.70604,1.2268-7.55434,1.99332-11.35016,2.8985-7.41887,1.68643-15.48348,3.38677-22.92281,4.8239-11.6833,2.11428-23.44457-1.84079-35.05796-1.01093-7.67864,.80044-15.41531,3.12891-21.65409,7.81553h0Z" style="fill:#263238;"></path></g><path d="M334.97559,328.7965c.2848,3.4677,.4188,7.5746-.02759,7.9794-2.99341,2.8-85.46221,16.7757-88.78041,16.301-1.3199-.1816-5.0769-3.3532-4.7928-6.2764,.0616-.6074,.1436-1.2388,.258-1.8839,2.3197-2.1759,11.75121-8.759,23.4826-9.6558,8.0625-.6164,26.6314,2.101,33.1139,1.3121,6.3716-.7798,30.0414-6.1662,36.7463-7.7764Z" style="opacity:.1;"></path></g></g><g><path d="M274.225,315.4605l57.99189-7.8971s3.6866-4.6112,4.1246-8.311c.3269-2.7621-5.1734-8.4768-3.8231-11.9259,4.0251-10.281-12.2529-47.917-12.2529-47.917,3.6936-4.1664,3.1094-10.343,2.0721-16.1996-3.4195-19.3061-13.99559-47.5865-13.99559-47.5865h0c-1.77131-3.043-4.00831-7.853-12.48731-12.369-9.5029-5.0613-26.1748,.6531-32.5618,8.6615-4.6997,5.8927-10.8932,22.7868-14.1252,32.2048-3.5245,10.27,7.04431,14.8646,9.1045,30.0892,2.8999,21.4299,3.0639,38.575,5.3997,54.3198,.4016,2.7066,3.6879,3.8238,4.0105,6.2233,.5534,4.1154-1.3457,8.4203-.7043,11.3556,.94691,4.3327,7.24691,9.3519,7.24691,9.3519Z" style="fill:#37474f;"></path><path d="M255.77369,206.1428c-.6479,4.0626-.9029,8.1094-.7202,12.2068-.485-2.167-.9603-4.3369-1.4717-6.4977-.0413-.1741-.3401-.1609-.3257,.0301,.2192,2.9172,.9055,5.6838,1.9015,8.4022,.3269,4.2752,4.8635,35.5812,5.7817,40.9495,.0164,.0959,.17271,.0822,.1714-.0159-.064-4.7642-3.35969-30.4767-4.5441-39.7428-.6429-5.0303-1.128-10.2616-.5673-15.3227,.0162-.1469-.2034-.1497-.2256-.0095Z" style="fill:#263238;"></path><path d="M258.3649,180.93069c-3.7554,10.62927-8.75808,22.00162-11.72516,32.87721-.50817,1.58704-.98333,3.18352-1.52206,4.7677,.54752-2.81537,1.52382-6.9217,2.19873-9.76009,2.5908-9.6785,6.73386-18.86891,11.0485-27.88483h0Z" style="fill:#263238;"></path><path d="M308.34201,175.6234c1.2912,6.67441,3.5227,14.67451,4.79153,21.37874,1.06229,7.08595,.85573,14.58183,2.08713,21.78641,.33195,2.93837,1.46812,5.56989,2.25417,8.38724,1.54197,5.65126,2.81004,11.35227,3.94084,17.08581-1.37825-5.02424-3.1753-11.9763-4.68125-16.86798-2.18739-5.48636-3.01471-11.33711-3.46804-17.18906-.46854-4.34886-.21151-8.7288-.98084-13.05167-1.22396-7.14708-3.0241-14.33223-3.94355-21.52949h0Z" style="fill:#263238;"></path></g></g></g></g><g><path d="M367.95769,296.1885c-28.73269,7.6361-275.01869,92.6705-300.83239,107.9906-31.7696,18.8548-7.7323,48.666,58.1017,31.9868,57.99709-14.6937,271.92629-82.6761,294.42769-90.661s28.62-20.782,26.6744-28.5705c-2.7448-10.9871-30.3298-33.5134-78.3714-20.7459Z" style="fill:#37474f;"></path><path d="M368.00629,299.5959c-28.7348,7.5002-275.05339,90.2442-300.87099,105.283-31.7745,18.5088-7.7454,47.7529,58.0929,31.3697,58.00081-14.4328,271.95809-80.4368,294.46159-88.2775,22.5034-7.8408,29.1227-20.8454,26.5775-28.3145s-30.21629-32.601-78.261-20.0607Z" style="fill:#263238;"></path><path d="M419.69,347.97c-22.5,7.84-236.46,73.85-294.46,88.28-65.84,16.38-89.87-12.86-58.09-31.37,8.04-4.68,37.45-15.93,75.01-29.42-28.56,16.57-42.82,36.78,38.8,24.9,81.62-11.87,223.06-48.12,224.83-73.67,1.77-25.55-37.77-27.09-37.77-27.09,48.04-12.54,75.71,12.59,78.26,20.06,2.54,7.47-4.08,20.47-26.58,28.31Z" style="opacity:.1;"></path><path d="M444.21819,316.2333l-27.1751,10.4593-23.66309-14.4617,27.51759-11.4206c11.83541,4.3458,19.7236,10.8419,23.3206,15.423Z" style="fill:#FFC72C;"></path></g></g></g></svg>
