<svg xmlns="http://www.w3.org/2000/svg" viewBox="0 0 500 500"><g id="freepik--background-complete--inject-63"><g><g><g><path d="M443.92039,330.1975h-180.7461c-3.2324,0-5.86229-2.6298-5.86229-5.8623V61.0618c0-3.2324,2.62989-5.8618,5.86229-5.8618h180.7461c3.2324,0,5.8623,2.6294,5.8623,5.8618V324.3352c0,3.2325-2.6299,5.8623-5.8623,5.8623ZM263.17429,55.45c-3.0947,0-5.61229,2.5176-5.61229,5.6118V324.3352c0,3.0948,2.51759,5.6123,5.61229,5.6123h180.7461c3.0947,0,5.6123-2.5175,5.6123-5.6123V61.0618c0-3.0942-2.5176-5.6118-5.6123-5.6118h-180.7461Z" style="fill:#e0e0e0;"></path><path d="M235.49269,330.1975H54.7461c-3.2324,0-5.8618-2.6298-5.8618-5.8623V61.0618c0-3.2324,2.6294-5.8618,5.8618-5.8618H235.49269c3.2324,0,5.86231,2.6294,5.86231,5.8618V324.3352c0,3.2325-2.62991,5.8623-5.86231,5.8623ZM54.7461,55.45c-3.0942,0-5.6118,2.5176-5.6118,5.6118V324.3352c0,3.0948,2.5176,5.6123,5.6118,5.6123H235.49269c3.0947,0,5.61231-2.5175,5.61231-5.6123V61.0618c0-3.0942-2.51761-5.6118-5.61231-5.6118H54.7461Z" style="fill:#e0e0e0;"></path></g><rect x="0" y="391.2669" width="500" height=".25" style="fill:#e0e0e0;"></rect></g><rect x="51.6724" y="405.5314" width="16.06" height=".25" style="fill:#e0e0e0;"></rect><rect x="170.3524" y="402.8214" width="53.53" height=".25" style="fill:#e0e0e0;"></rect><rect x="68.7324" y="414.8214" width="36.25" height=".25" style="fill:#e0e0e0;"></rect><rect x="378.35239" y="402.6914" width="43.19" height=".25" style="fill:#e0e0e0;"></rect><rect x="430.45239" y="402.6914" width="6.33" height=".25" style="fill:#e0e0e0;"></rect><rect x="316.21239" y="408.9214" width="53.89" height=".25" style="fill:#e0e0e0;"></rect></g><g><path d="M366.38729,148.4424c-17.5254-8.9101-94.367-115.1187-106.5001-109.4163-12.1328,5.7025-29.65819,19.2459-43.81319,32.0765-14.15511,12.8305-62.0126,114.7625-62.0126,114.7625l-13.4811-24.2356-14.155-18.5331s-24.2657,7.8409-49.8798,24.9483c-25.6138,17.1075-40.2458,83.1059-40.2458,83.1059,98.2768,1.0575,407.02589-6.9667,407.02589-6.9667-8.08859-32.0764-59.4131-86.8312-76.9383-95.7415Z" style="fill:#ebebeb;"></path><path d="M194.679,104.763c.3966,2.5169,7.78249,33.6425,7.78249,33.6425l20.62651,10.9063,28.16329,46.5615-26.5766-69.6327-23.7023-33.2755-6.29339,11.7979Z" style="fill:#e0e0e0;"></path><path d="M250.89249,174.8176c-.00049,1.8695,13.2133,11.0491,13.2133,11.0491l6.7805,19.1411-4.6715-25.76-15.3223-19.1211v14.6909Z" style="fill:#e0e0e0;"></path><polygon points="243.47309 92.9651 253.67569 113.5026 297.23259 144.4191 313.71359 164.8122 303.90349 136.2743 256.42249 109.3608 243.47309 92.9651" style="fill:#e0e0e0;"></polygon><path d="M83.4207,167.5078l5.5343,15.0596,21.5362,9.7632,16.2856,12.6772s-8.6237-13.2826-8.4328-13.888c.1908-.6054-9.9236-15.5395-9.9236-15.5395,0,0-17.1753-3.6326-17.1753-4.4398,0-.8071-7.8244-7.4954-7.8244-7.4954l-8.4882,5.542,8.4882-1.6793Z" style="fill:#e0e0e0;"></path><path d="M100.8547,155.0892s-2.9669,9.4431,4.0836,8.5559c7.0505-.8872,14.4675-5.3354,14.4675-5.3354,0,0,3.8883,16.2724,9.2156,13.9422,5.3273-2.3301,8.5942-3.0361,8.5942-3.0361,0,0,4.2457,15.1074,8.4836,12.1711l4.2379-2.9363s-17.3584-35.2609-23.5118-35.3542c-6.1534-.0934-24.9523,7.8048-25.5706,11.9928Z" style="fill:#f5f5f5;"></path><path d="M211.14309,77.0875s1.551,12.1156,18.9551,7.8763c17.4041-4.2392,24.3293-13.2164,24.3293-13.2164,0,0,19.8176,36.0229,31.0077,28.4848,11.1902-7.538,14.6653-10.7797,14.6653-10.7797,0,0,15.113,32.3977,23.5204,27.9291l8.4074-4.4688s-53.26-81.563-70.5525-75.3288c-17.2926,6.2342-47.5263,31.3779-50.3327,39.5035Z" style="fill:#f5f5f5;"></path></g><path d="M109.9756,53.1927c-1.3787-1.0417-3.3904-1.1596-4.8815-.2862-1.9791-3.9995-7.4945-5.7646-11.428-3.6574-1.0262-4.3097-5.2725-7.6223-9.7022-7.5691-4.43,.0534-8.5953,3.4671-9.5175,7.8004-.1465,.6886-.2435,1.443-.736,1.9461-.8002,.8173-2.1361,.543-3.2763,.454-3.5877-.2798-7.1976,2.2388-8.1732,5.7024l49.4055-.1798c.4326-1.6728-.3121-3.1687-1.6908-4.2104Z" style="fill:#f0f0f0;"></path><path d="M163.7854,110.0132c-1.8229-1.3774-4.4828-1.5333-6.4544-.3785-2.6168-5.2881-9.9093-7.622-15.1102-4.8358-1.3568-5.6983-6.9713-10.0783-12.8283-10.0079-5.8574,.0706-11.3648,4.5842-12.5841,10.3137-.1937,.9105-.322,1.908-.9732,2.5732-1.058,1.0806-2.8243,.7179-4.3319,.6003-4.7437-.37-9.5167,2.9601-10.8067,7.5397l65.3244-.2377c.572-2.2118-.4127-4.1897-2.2356-5.567Z" style="fill:#f0f0f0;"></path><path d="M340.20949,35.1064c-1.17749-.8897-2.8957-.9904-4.1691-.2445-1.6903-3.4158-6.4008-4.9233-9.7603-3.1236-.8764-3.6808-4.503-6.5099-8.2862-6.4645-3.7835,.0456-7.341,2.9611-8.1286,6.662-.1251,.5882-.2079,1.2325-.6286,1.6621-.6834,.6981-1.8243,.4638-2.7981,.3878-3.0642-.239-6.1472,1.9121-6.9805,4.8702l42.1954-.1536c.36951-1.4287-.2666-2.7062-1.444-3.5959Z" style="fill:#f0f0f0;"></path><path d="M469.79229,78.9531c-1.217-.9196-2.9928-1.0236-4.3091-.2526-1.7471-3.5306-6.6158-5.0888-10.0881-3.2286-.9059-3.8044-4.6543-6.7286-8.5646-6.6817-3.9106,.0472-7.5876,3.0606-8.4016,6.8859-.1294,.6078-.215,1.2738-.6498,1.7179-.7063,.7215-1.8856,.4793-2.89209,.4008-3.16711-.247-6.35371,1.9763-7.21491,5.0338l43.6128-.1587c.3819-1.4767-.2755-2.7972-1.4926-3.7168Z" style="fill:#f0f0f0;"></path></g><g id="freepik--Sun--inject-63"><g><path d="M195.4164,56.0289c0,2.1952-3.1749,3.939-3.7168,5.9606-.5418,2.0217,1.2991,5.1896,.2431,7.0168-1.0558,1.8271-4.6962,1.7923-6.2038,3.2929-1.5075,1.5007-1.4381,5.134-3.2931,6.2039-1.8548,1.0698-4.9254-.799-7.0165-.2432-2.0912,.5559-3.7723,3.7168-5.9607,3.7168s-3.9391-3.1749-5.9607-3.7168c-2.0217-.5418-5.1826,1.3061-7.0167,.2432s-1.7855-4.6963-3.293-6.2039c-1.5075-1.5074-5.1271-1.4311-6.2038-3.2929-1.0768-1.8618,.7988-4.9465,.2431-7.0307s-3.7167-3.7653-3.7167-5.9606,3.1747-3.9321,3.7167-5.9538c.5419-2.0216-1.2992-5.1895-.2431-7.0167,1.0559-1.8271,4.6962-1.7923,6.2038-3.2998,1.5075-1.5077,1.4381-5.1271,3.293-6.204,1.8548-1.0767,4.9255,.8058,7.0167,.2431,2.0911-.5626,3.7723-3.7098,5.9606-3.7098s3.9391,3.175,5.9608,3.7098c2.0215,.5351,5.1826-1.2991,7.0165-.2431,1.8342,1.0559,1.7856,4.6963,3.293,6.204,1.5076,1.5075,5.1271,1.438,6.2039,3.2998,1.0769,1.8619-.7989,4.9256-.2431,7.0167,.5557,2.0911,3.7168,3.7794,3.7168,5.9677Z" style="fill:#FFC72C;"></path><path d="M195.4164,56.0289c0,2.1952-3.1749,3.939-3.7168,5.9606-.5418,2.0217,1.2991,5.1896,.2431,7.0168-1.0558,1.8271-4.6962,1.7923-6.2038,3.2929-1.5075,1.5007-1.4381,5.134-3.2931,6.2039-1.8548,1.0698-4.9254-.799-7.0165-.2432-2.0912,.5559-3.7723,3.7168-5.9607,3.7168s-3.9391-3.1749-5.9607-3.7168c-2.0217-.5418-5.1826,1.3061-7.0167,.2432s-1.7855-4.6963-3.293-6.2039c-1.5075-1.5074-5.1271-1.4311-6.2038-3.2929-1.0768-1.8618,.7988-4.9465,.2431-7.0307s-3.7167-3.7653-3.7167-5.9606,3.1747-3.9321,3.7167-5.9538c.5419-2.0216-1.2992-5.1895-.2431-7.0167,1.0559-1.8271,4.6962-1.7923,6.2038-3.2998,1.5075-1.5077,1.4381-5.1271,3.293-6.204,1.8548-1.0767,4.9255,.8058,7.0167,.2431,2.0911-.5626,3.7723-3.7098,5.9606-3.7098s3.9391,3.175,5.9608,3.7098c2.0215,.5351,5.1826-1.2991,7.0165-.2431,1.8342,1.0559,1.7856,4.6963,3.293,6.204,1.5076,1.5075,5.1271,1.438,6.2039,3.2998,1.0769,1.8619-.7989,4.9256-.2431,7.0167,.5557,2.0911,3.7168,3.7794,3.7168,5.9677Z" style="fill:#fff; opacity:.5;"></path><path d="M162.3716,38.8951c9.461-3.9188,20.3075,.5738,24.2264,10.0349,3.9188,9.461-.5738,20.3076-10.0348,24.2265-9.4611,3.9189-20.3077-.574-24.2264-10.035-3.9189-9.461,.5738-20.3074,10.0348-24.2264Z" style="fill:#FFC72C;"></path><path d="M162.3716,38.8951c9.461-3.9188,20.3075,.5738,24.2264,10.0349,3.9188,9.461-.5738,20.3076-10.0348,24.2265-9.4611,3.9189-20.3077-.574-24.2264-10.035-3.9189-9.461,.5738-20.3074,10.0348-24.2264Z" style="fill:#fff; opacity:.7;"></path></g></g><g id="freepik--Snow--inject-63"><g><g><path d="M467.19089,187.6216c-2.4057-2.5562-6.1843-1.9804-9.2183-.5389-10.30159,4.8944-16.7097,17.0453-22.3081,28.5907,1.4419-3.5848-.633-8.4533-3.864-9.7011-3.4807-1.3441-7.4224,.6799-10.0009,3.8762-2.57859,3.1963-4.0782,7.3835-5.52159,11.4669-.90871-6.4342,1.92059-13.0631,.11269-19.5623-.668-2.4012-2.0919-4.4619-4.09469-5.2646-4.03121-1.6157-7.46791,2.4941-9.91741,6.3061-7.809,12.1524-14.1782,25.6188-18.85059,39.8558,.94429-4.2858,1.89739-8.7805,.422-13.0329-.51881-1.4952-1.38291-2.8142-2.52741-3.6697-3.4285-2.5628-6.6468-.02-9.0885,2.5642-3.8815,4.108-6.9993,9.1327-9.4246,14.6056-6.7343,15.1964-11.5529,31.5772-14.2519,48.4038l-.02359-.0543c-1.10431-2.5455-4.19271-2.5379-5.30621,.0498-4.90579,11.4007-6.8811,29.8074-9.4976,44.0776,36.7283-22.9447,72.4231-51.7246,107.1124-86.1803,13.6377-15.3031,23.0991-29.3294,27.5642-42.3698,1.687-4.9272,1.9589-15.943-1.3159-19.4228Z" style="fill:#FFC72C;"></path><g style="opacity:.6;"><path d="M467.19089,187.6216c-2.4057-2.5562-6.1843-1.9804-9.2183-.5389-10.30159,4.8944-16.7097,17.0453-22.3081,28.5907,1.4419-3.5848-.633-8.4533-3.864-9.7011-3.4807-1.3441-7.4224,.6799-10.0009,3.8762-2.57859,3.1963-4.0782,7.3835-5.52159,11.4669-.90871-6.4342,1.92059-13.0631,.11269-19.5623-.668-2.4012-2.0919-4.4619-4.09469-5.2646-4.03121-1.6157-7.46791,2.4941-9.91741,6.3061-7.809,12.1524-14.1782,25.6188-18.85059,39.8558,.94429-4.2858,1.89739-8.7805,.422-13.0329-.51881-1.4952-1.38291-2.8142-2.52741-3.6697-3.4285-2.5628-6.6468-.02-9.0885,2.5642-3.8815,4.108-6.9993,9.1327-9.4246,14.6056-6.7343,15.1964-11.5529,31.5772-14.2519,48.4038l-.02359-.0543c-1.10431-2.5455-4.19271-2.5379-5.30621,.0498-4.90579,11.4007-6.8811,29.8074-9.4976,44.0776,36.7283-22.9447,72.4231-51.7246,107.1124-86.1803,13.6377-15.3031,23.0991-29.3294,27.5642-42.3698,1.687-4.9272,1.9589-15.943-1.3159-19.4228Z" style="fill:#fff;"></path></g></g><g><g><path d="M424.77929,235.401c.683-2.3081,1.2775-4.7177,.924-7.0946-.3534-2.3768-1.8641-4.7305-4.1975-5.4308-3.5932-1.0784-7.0233,1.9727-9.357,4.8771-5.9013,7.3447-10.6412,15.5912-13.9964,24.3509,.2167-1.6768,.3751-3.4781,.3522-5.2502-.052-4.0352-5.7365-4.8025-6.889-.9351-6.3663,21.3634-15.92859,41.8084-28.2975,60.4572l.0338,.8897c22.7538-7.3948,43.4172-20.9495,59.11811-38.78,1.21569-1.3805,2.44189-2.8637,2.82679-4.65,.385-1.7864-.3693-3.9446-2.1139-4.5601-1.255-.4428-2.6424-.003-3.8755,.5004-4.1472,1.693-7.97639,4.1403-11.236,7.1814,7.6027-9.3041,13.3169-20.0964,16.7079-31.5559Z" style="fill:#FFC72C;"></path><g style="opacity:.5;"><path d="M424.77929,235.401c.683-2.3081,1.2775-4.7177,.924-7.0946-.3534-2.3768-1.8641-4.7305-4.1975-5.4308-3.5932-1.0784-7.0233,1.9727-9.357,4.8771-5.9013,7.3447-10.6412,15.5912-13.9964,24.3509,.21661-1.6758,.3749-3.4758,.3523-5.2469-.0516-4.0357-5.7373-4.8032-6.8901-.9352-6.3663,21.3622-15.9282,41.8062-28.2965,60.454l.0338,.8897c22.7538-7.3948,43.4172-20.9495,59.11811-38.78,1.21569-1.3805,2.44189-2.8637,2.82679-4.65,.385-1.7864-.3693-3.9446-2.1139-4.5601-1.255-.4428-2.6424-.003-3.8755,.5004-4.1472,1.693-7.97639,4.1403-11.236,7.1814,7.6027-9.3041,13.3169-20.0964,16.7079-31.5559Z" style="fill:#fff;"></path></g></g><g><path d="M374.67779,251.6208c-1.3926,4.4132-1.3034,8.3612,.19921,8.8183,1.50269,.457,3.84979-2.75,5.24239-7.1632,1.39261-4.4131,1.3034-8.3612-.1992-8.8182-1.5027-.4571-3.8498,2.75-5.2424,7.1631Z" style="fill:#FFC72C;"></path><path d="M374.67779,251.6208c-1.3926,4.4132-1.3034,8.3612,.19921,8.8183,1.50269,.457,3.84979-2.75,5.24239-7.1632,1.39261-4.4131,1.3034-8.3612-.1992-8.8182-1.5027-.4571-3.8498,2.75-5.2424,7.1631Z" style="fill:#fff; opacity:.5;"></path></g><g><path d="M401.897,221.6174c-.65681,2.0812-.61471,3.9431,.094,4.1587,.70859,.2155,1.81549-1.2969,2.47229-3.3781,.65671-2.0813,.6146-3.9432-.094-4.1587-.7087-.2156-1.8155,1.2969-2.47229,3.3781Z" style="fill:#FFC72C;"></path><path d="M401.897,221.6174c-.65681,2.0812-.61471,3.9431,.094,4.1587,.70859,.2155,1.81549-1.2969,2.47229-3.3781,.65671-2.0813,.6146-3.9432-.094-4.1587-.7087-.2156-1.8155,1.2969-2.47229,3.3781Z" style="fill:#fff; opacity:.5;"></path></g><g><path d="M431.81619,242.7039c-1.4896,1.6963-1.85719,3.7928-.8211,4.6827,1.0361,.8899,3.0835,.2362,4.5731-1.46s1.8572-3.7927,.8211-4.6826c-1.0361-.89-3.0835-.2363-4.5731,1.4599Z" style="fill:#FFC72C;"></path><path d="M431.81619,242.7039c-1.4896,1.6963-1.85719,3.7928-.8211,4.6827,1.0361,.8899,3.0835,.2362,4.5731-1.46s1.8572-3.7927,.8211-4.6826c-1.0361-.89-3.0835-.2363-4.5731,1.4599Z" style="fill:#fff; opacity:.5;"></path></g><g><path d="M436.36069,229.522c-.7845,.6787-1.0833,1.61-.6675,2.0801,.41581,.4701,1.3889,.301,2.1734-.3777,.7845-.6788,1.0833-1.6101,.6675-2.0802s-1.3889-.301-2.1734,.3778Z" style="fill:#FFC72C;"></path><path d="M436.36069,229.522c-.7845,.6787-1.0833,1.61-.6675,2.0801,.41581,.4701,1.3889,.301,2.1734-.3777,.7845-.6788,1.0833-1.6101,.6675-2.0802s-1.3889-.301-2.1734,.3778Z" style="fill:#fff; opacity:.5;"></path></g></g></g></g><g id="freepik--Character--inject-63"><g><g><path d="M287.60919,186.0233c-.3453,5.535-4.4183,10.1341-9.7685,11.5941-6.4932,1.7718-14.3523,3.8389-20.55,2.42-8.326-1.9062-25.3962-11.8867-25.3962-11.8867l-7.5714-26.8832s5.1917-1.9525,9.1602-.0039c3.93171,1.9306,30.9711,15.7014,30.9711,15.7014,0,0,15.10361-1.158,18.1948,.3965,4.0911,2.0574,5.1646,5.3825,4.96,8.6618Z" style="fill:#FFC72C;"></path><path d="M234.4781,189.11669c1.04328-6.30011,1.71186-12.63309,1.8404-19.02049,.00972-.48281-.74029-.48277-.75,0-.12719,6.32062-.78115,12.58641-1.8136,18.82111-.07819,.47214,.64442,.67519,.72321,.19938h0Z" style="fill:#263238;"></path><g style="opacity:.3;"><path d="M287.63039,185.5589c.0734-.0082-4.136-.232-6.03739-.3254,0,0,.11769-.8257,3.10459-.7192,2.251,.0803,2.9328,1.0446,2.9328,1.0446Z"></path></g><g style="opacity:.3;"><path d="M287.38559,188.1509c-1.588,.5769-3.6585,1.3971-5.2464,1.974,0,0,1.3489,.9354,2.7514,.2757,1.40241-.6598,2.495-2.2497,2.495-2.2497Z"></path></g><path d="M236.31519,171.3137s3.6203,13.8211,2.6026,20.7287l-4.65279-2.5298,2.05019-18.1989Z" style="opacity:.3;"></path><polygon points="247.98159 168.588 241.29449 193.2884 249.07069 197.0803 256.00689 172.6024 247.98159 168.588" style="fill:#fff; opacity:.5;"></polygon><polygon points="257.45539 173.4031 250.83029 197.8105 253.64769 198.9201 259.91059 174.6522 257.45539 173.4031" style="fill:#fff; opacity:.5;"></polygon></g><g><path d="M173.9493,177.4833s-6.6137,1.7596-10.516,7.5691c-3.9023,5.8096-18.105,21.7277-20.1609,23.6361-2.0559,1.9085-29.0199,17.8603-31.638,19.6354-2.618,1.7752-10.1172,5.1826-10.8625,9.9753l-4.636,2.6632,3.8473,10.9182,6.2928-1.4658s3.3454,1.5407,16.2774-3.0824,36.414-23.024,42.1225-27.0727c7.9703-5.6527,13.9025-13.1116,13.9025-13.1116l5.0006-14.8247-9.6297-14.8401Z" style="fill:#FFC72C;"></path><path d="M107.8726,255.3176c-.3626,2.2255-11.6883,2.2019-11.6883,2.2019,0,0-5.513,5.2526-12.3615,7.097-6.8486,1.8444-12.3433-1.2987-13.9469-7.0958-1.6037-5.7971,6.6731-10.1073,6.6731-10.1073,0,0-3.4901-.7213-1.9835-3.604s14.9816-.7695,14.9816-.7695c0,0,4.5093-5.1336,7.8551-6.777,.5818-.2858,1.2807-.0555,1.5616,.5287l8.9088,18.526Z" style="fill:#263238;"></path><path d="M90.1878,244.04387c2.42393,3.77801,4.22311,7.91023,5.3355,12.25902,.11953,.46728,.84308,.26924,.72321-.19938-1.12724-4.40686-2.95474-8.60961-5.4111-12.43818-.25983-.40497-.90927-.02931-.6476,.37854h0Z"></path><g style="opacity:.3;"><path d="M178.2804,207.5129s-3.1053-9.1359-4.8942-13.8137l.2518,18.8824s3.9776-3.5073,4.6424-5.0687Z"></path></g><g style="opacity:.3;"><path d="M139.6709,229.1531s3.2837-11.6805,3.6319-17.3299c0,0,3.5139,10.8493-3.6319,17.3299Z"></path></g><polygon points="146.115 205.6941 164.6759 220.2597 171.5886 214.5676 152.2459 198.809 146.115 205.6941" style="fill:#fff; opacity:.5;"></polygon><polygon points="143.2724 208.6885 157.9233 225.2383 160.6333 223.2299 144.5758 207.3559 143.2724 208.6885" style="fill:#fff; opacity:.5;"></polygon></g><g><path d="M236.69469,202.0743c-.0549-.148-.2445-.1763-.34969-.0587l-47.9754,49.5901c-.05,.1334,.8892-.8253,.8713-.8189-1.2504,.4465-6.1183,21.9278,4.4871,26.1548,2.1511,2.0286,14.04169-15.3591,24.60009-22.6615,11.1212-7.6916,23.2313-10.2583,26.42491-16.5834,3.01219-5.966-6.77621-32.1671-8.05831-35.6224Z" style="fill:#FFC72C;"></path><path d="M188.3696,251.6057s-.8922,5.0851,11.6147,2.1153c12.5069-2.9698,35.176-16.8846,35.176-16.8846l-46.7907,14.7693" style="opacity:.3;"></path><path d="M229.92232,239.6268c1.13574,.84775,1.69448,2.35719,1.40837,3.74031-.06242,.30176,.17391,.50355,.46129,.46129,1.88586-.2773,3.44431,1.32495,3.28541,3.1778-.04124,.48084,.709,.47808,.75,0,.20502-2.39061-1.90664-4.24334-4.23479-3.901l.46129,.46129c.36033-1.74187-.33159-3.52628-1.75303-4.58729-.38698-.28885-.76129,.36191-.37854,.6476h0Z" style="fill:#263238;"></path><path d="M178.4087,174.2l-7.2863,4.3927s10.7658,14.42,7.2539,29.531c0,0,6.0152,31.48,9.4418,42.661,1.801,5.8767,31.3011-5.3225,41.2259-10.3631,13.25859-6.7336,14.47759-12.7177,15.28709-14.6543s-12.4125-42.9463-13.23009-47.4017c-.81771-4.4554-5.33481-18.1958-5.33481-18.1958l-2.814,.2311-2.00719,.3852s-3.74841,14.8564-10.823,20.0016c-7.07471,5.1453-31.7133-6.5877-31.7133-6.5877Z" style="fill:#FFC72C;"></path><path d="M178.4087,174.2l-7.2863,4.3927s10.7658,14.42,7.2539,29.531c0,0,6.0152,31.48,9.4418,42.661,1.801,5.8767,31.3011-5.3225,41.2259-10.3631,13.25859-6.7336,14.47759-12.7177,15.28709-14.6543s-12.4125-42.9463-13.23009-47.4017c-.81771-4.4554-5.33481-18.1958-5.33481-18.1958l-2.814,.2311-2.00719,.3852s-3.74841,14.8564-10.823,20.0016c-7.07471,5.1453-31.7133-6.5877-31.7133-6.5877Z" style="fill:#fff; opacity:.5;"></path><g><path d="M215.38909,221.0905l.8711,2.8711-11.5078,3.4942-.69339-2.2842,4.18949-7.3301c.9589-1.6938,.9599-2.5498,.7353-3.29-.3623-1.1954-1.4014-1.6407-3.0107-1.1519-1.3047,.3965-2.2637,1.2334-2.6914,2.4805l-3.0694-.8741c.6524-2.0751,2.4473-3.832,5.1885-4.6645,3.3945-1.0303,6.1846,.0229,7.0234,2.7856,.4493,1.4795,.4454,2.9546-1.0859,5.5816l-2.4971,4.3701,6.5479-1.9883Z" style="fill:#263238;"></path><path d="M228.224,217.1935l.87209,2.8711-11.5088,3.4942-.69429-2.2842,4.18939-7.3301c.96-1.6938,.962-2.5498,.7373-3.29-.3632-1.1953-1.4013-1.6406-3.01169-1.1519-1.30561,.3965-2.26271,1.2334-2.69241,2.48l-3.0683-.8735c.6523-2.0757,2.4482-3.8321,5.1885-4.6646,3.3945-1.0302,6.1845,.023,7.0234,2.7857,.4492,1.4795,.4453,2.9546-1.085,5.5815l-2.498,4.3701,6.54781-1.9883Z" style="fill:#263238;"></path></g><rect x="224.16273" y="194.59943" width="4.61004" height="4.61003" transform="translate(-47.43664 74.28558) rotate(-16.88898)" style="fill:#FFC72C;"></rect><path d="M197.4334,194.4871c.2836,.9341-1.95,2.4394-4.9889,3.3621-3.039,.9227-5.7324,.9134-6.0161-.0208-.2836-.9341,1.95-2.4394,4.989-3.3621,3.0389-.9227,5.7324-.9134,6.016,.0208Z" style="fill:#FFC72C;"></path><path d="M195.4357,264.9181s9.909-10.7464,19.3655-15.1144c14.2276-6.5718,20.2083-7.9232,21.325-7.2962-.7801,.2152-14.8461,5.144-21.8035,8.7467-4.6715,2.4191-18.887,13.6639-18.887,13.6639Z" style="opacity:.3;"></path><g style="opacity:.3;"><path d="M232.52849,215.733c-9.4426,6.8691-19.4789,12.9218-29.9604,18.0684,0,0,14.5742-3.5609,21.8207-8.2434,7.2464-4.6824,8.1397-9.825,8.1397-9.825Z"></path></g></g><g><path d="M222.948,251.8392s35.07119-28.445,44.24739-31.5654,13.31361-2.1665,19.9335,2.5457c6.6199,4.7122,52.00311,74.2939,52.00311,74.2939,0,0-14.63211,14.387-18.20621,11.5193-1.8764-1.5056-14.6984-11.505-25.3273-25.3042-.8761-1.1375-.558-7.152-1.41449-8.2667-8.54311-11.1185-15.80651-20.6977-15.80651-20.6977,0,0-5.146,2.5233-4.9672-2.2833l-29.20429,29.5872-21.258-29.8288Z" style="fill:#263238;"></path><path d="M248.61749,232.0298c-.2826,.2061-1.8233,5.6405,.766,11.6991,2.5894,6.0587,14.8158,17.6836,14.8158,17.6836l-5.1598,5.1496-19.72349-20.0726,5.549-11.692,3.75249-2.7677Z" style="opacity:.3;"></path><path d="M194.8939,277.2022s4.7827,9.7896,14.841,16.4021c14.1453,9.2994,27.3063-10.0837,27.3063-10.0837l9.6047,15.5995,26.8276,32.3423,5.5778,12.7437s20.0785-13.6613,19.0316-15.9652c-.6661-1.4661-17.627-30.5786-31.4996-53.0064-.9271-1.4989-1.8405-2.9681-2.73429-4.3971-6.74941-10.7908-12.38221-19.2944-14.40651-21.0973-6.3032-5.6139-10.1788-4.4345-17.9976-3.7838-7.8968,.6571-37.2065,29.21-36.551,31.2459Z" style="fill:#263238;"></path><path d="M273.41029,252.0808s4.7354-10.9232,3.0383-11.434-3.0383,11.434-3.0383,11.434Z" style="opacity:.3;"></path><path d="M278.37749,254.3641s8.289-5.5774,6.82651-6.378c-1.46251-.8005-6.82651,6.378-6.82651,6.378Z" style="opacity:.3;"></path><path d="M237.01279,283.7922s-1.9963-3.1866-1.9776-5.0339c.0187-1.8474,2.921,4.942,3.14681,4.2396,.22569-.7024,4.882-3.4278,4.03129-1.6547-.8508,1.773-5.2005,2.449-5.2005,2.449Z" style="opacity:.3;"></path></g><rect x="195.86692" y="199.50271" width="26.93374" height="4.90069" transform="translate(-49.64368 69.5282) rotate(-16.88955)" style="fill:#fff; opacity:.6;"></rect><g><path d="M170.0999,177.31s-10.7163,.7889-10.9013-10.2019,16.3703-23.1843,30.0225-25.0073c9.1344-1.2198,26.367,.6734,29.5827,9.9958,3.2156,9.3223,1.4588,13.0392,1.4588,13.0392,0,0,.4871,12.1597-13.13059,20.0893-7.39461,4.3059-37.0321-7.9151-37.0321-7.9151Z" style="fill:#FFC72C;"></path><path d="M186.2887,175.8292s-16.3296-1.2965-16.7801-7.4651c-1.4833-20.3102,38.7458-23.7661,42.5943-17.4719,3.8486,6.2942-1.3472,20.592-1.3472,20.592l-24.467,4.345Z" style="opacity:.3;"></path><g style="opacity:.3;"><path d="M204.61969,183.5695c-11.6322-2.1059-21.8316-3.7736-33.4638-5.8796,0,0,11.5824,4.5784,20.3621,5.3924,8.77969,.814,13.10169,.4872,13.10169,.4872Z"></path></g><g style="opacity:.3;"><path d="M220.08709,166.7989c-2.6762,6.3187-7.1939,11.8446-12.8546,15.7234,0,0,6.7762-1.3021,9.2767-4.9643,2.5004-3.6621,3.7863-9.9996,3.7863-9.9996"></path></g><path d="M204.42909,180.97929c.4361,1.40278,.87228,2.80553,1.3084,4.2083,.14283,.45942,.86707,.26336,.72321-.19938-.43612-1.40277-.8723-2.80552-1.3084-4.2083-.14283-.45943-.86707-.26336-.72321,.19938h0Z" style="fill:#263238;"></path></g><g><g><path d="M326.75519,321.596s-14.3785-18.7796-16.6787-22.2199c-2.3003-3.4403,16.4428-21.4639,21.0952-17.9248,4.65231,3.5391,14.1882,23.6683,14.1882,23.6683,0,0,9.3652-6.6691,12.5205-5.7544s2.2893,5.2096,2.2893,5.2096c0,0-27.0458,24.434-29.3753,22.7527-2.32939-1.6813-4.0392-5.7315-4.0392-5.7315Z" style="fill:#FFC72C;"></path><path d="M326.75519,321.596s-14.3785-18.7796-16.6787-22.2199c-2.3003-3.4403,16.4428-21.4639,21.0952-17.9248,4.65231,3.5391,14.1882,23.6683,14.1882,23.6683,0,0,9.3652-6.6691,12.5205-5.7544s2.2893,5.2096,2.2893,5.2096c0,0-27.0458,24.434-29.3753,22.7527-2.32939-1.6813-4.0392-5.7315-4.0392-5.7315Z" style="opacity:.3;"></path><path d="M334.76173,286.838c-2.87653,1.46512-5.66107,3.10336-8.32698,4.92452-1.26381,.86335-2.5236,1.75061-3.71204,2.71626-.90481,.73519-1.76865,1.59735-2.17407,2.71538-.9006,2.48361,.98214,5.37191,2.62004,7.12122,.79771,.85197,1.8452,1.34262,3.0091,.9874,1.40441-.42862,2.65568-1.64356,3.82429-2.48766,3.24101-2.34102,6.482-4.68206,9.72299-7.02311,.38765-.28001,.01369-.93092-.37854-.6476-3.03842,2.19474-6.07685,4.38947-9.1153,6.58418-.81025,.58525-1.61967,1.17167-2.43076,1.75576-.67619,.48694-1.439,1.13895-2.30887,1.19572-1.71133,.11167-3.01329-2.37992-3.69466-3.65139-.94332-1.76027-.99644-3.55577,.41687-5.06935,1.11587-1.19504,2.5561-2.12396,3.88872-3.05729,2.88092-2.0177,5.90407-3.82031,9.03774-5.41641,.4302-.21912,.05108-.86643-.37854-.6476h0Z" style="fill:#263238;"></path><path d="M341.73392,297.7965c-2.772,1.6408-5.54548,3.27913-8.3159,4.9226-2.13936,1.26911-4.47135,2.73324-5.19229,5.2791-.61977,2.1886,.46896,4.35208,2.54853,5.23943,2.47902,1.0578,4.81174-.35635,6.81735-1.75189,2.76653-1.925,5.35823-4.08977,7.75825-6.45528,.34429-.33934-.1861-.86961-.53033-.53033-2.35491,2.32105-4.89172,4.44904-7.60646,6.33801-1.32036,.91873-2.79309,1.98558-4.46435,2.03905-1.37934,.04413-2.79713-.69144-3.50634-1.88539-1.86464-3.13913,1.7497-5.94417,4.07893-7.34266,2.91948-1.75288,5.86075-3.47047,8.79115-5.20504,.41504-.24567,.03817-.89426-.37854-.6476h0Z" style="fill:#263238;"></path></g><path d="M286.85179,354.9336s-14.3785-18.7796-16.6787-22.2199c-2.3003-3.4403,16.4428-21.4639,21.0952-17.9248,4.6523,3.5391,14.1882,23.6683,14.1882,23.6683,0,0,9.3652-6.6691,12.52051-5.7544,3.15529,.9147,2.28929,5.2097,2.28929,5.2097,0,0-27.0458,24.4339-29.37529,22.7526-2.32941-1.6813-4.03921-5.7315-4.03921-5.7315Z" style="fill:#FFC72C;"></path><path d="M286.85179,354.9336s-14.3785-18.7796-16.6787-22.2199c-2.3003-3.4403,16.4428-21.4639,21.0952-17.9248,4.6523,3.5391,14.1882,23.6683,14.1882,23.6683,0,0,9.3652-6.6691,12.52051-5.7544,3.15529,.9147,2.28929,5.2097,2.28929,5.2097,0,0-27.0458,24.4339-29.37529,22.7526-2.32941-1.6813-4.03921-5.7315-4.03921-5.7315Z" style="opacity:.3;"></path><path d="M294.85832,320.1756c-2.92798,1.49133-5.76023,3.16231-8.46949,5.02237-1.21438,.83374-2.42573,1.68903-3.56952,2.61841-.93449,.75931-1.84413,1.66858-2.22157,2.84353-.78971,2.45834,1.06191,5.30374,2.68901,7.01875,.75284,.79352,1.73703,1.28433,2.84256,.99937,1.41228-.36403,2.6621-1.58106,3.81744-2.41557,3.29165-2.37759,6.58328-4.75522,9.87491-7.13285,.38765-.28001,.01369-.93092-.37854-.6476-3.1397,2.2679-6.27941,4.53578-9.41914,6.80365-.70897,.51209-1.41721,1.02521-2.12691,1.53629-.78318,.56399-1.72429,1.37149-2.76377,1.16746-1.43848-.28233-2.52391-2.3275-3.16098-3.4767-.97016-1.75006-1.14552-3.54765,.24261-5.11387,1.07387-1.21165,2.52612-2.13342,3.84261-3.06003,2.9233-2.05756,5.99435-3.89335,9.17934-5.51558,.4302-.21912,.05108-.86643-.37854-.6476h0Z" style="fill:#263238;"></path><path d="M301.83052,331.1341c-2.77196,1.64087-5.54548,3.27913-8.3159,4.9226-2.1394,1.26914-4.47137,2.73318-5.1923,5.2791-.61975,2.18861,.46896,4.35207,2.54854,5.23943,2.47905,1.05781,4.81173-.35634,6.81735-1.75189,2.76653-1.92501,5.35822-4.08977,7.75825-6.45528,.34429-.33934-.1861-.86961-.53033-.53033-2.35491,2.32104-4.89172,4.44904-7.60646,6.33801-1.3204,.91876-2.79303,1.98558-4.46435,2.03905-1.37934,.04413-2.79712-.69144-3.50634-1.88539-1.86468-3.13918,1.74968-5.94417,4.07893-7.34266,2.91948-1.75288,5.86079-3.4704,8.79115-5.20504,.41503-.24568,.03817-.89427-.37854-.6476h0Z" style="fill:#263238;"></path><g><g><path d="M275.29779,367.8437c-5.231,4.3401-27.66879,17.8136-43.4791,24.9764-8.5583,3.8773,18.9872,6.0019,28.03331,.2658,9.04609-5.7361,126.15919-93.3873,130.45229-97.6494,19.8695-19.7258,11.8676-36.3201,9.1112-36.4226-2.75649-.1025-8.201,11.9498-25.3197,29.1754l-98.798,79.6544Z" style="fill:#FFC72C;"></path><path d="M402.57339,263.7057c-.3365-.3091-.65439-.4792-.9222-.4892-2.7565-.1025-8.201,11.9498-25.3198,29.1755l-8.01539,6.4624-90.78251,73.192c-16.5401,12.4442-27.4409,17.8617-42.2987,24.3639,6.5293,1.1678,16.7574,1.3382,24.61721-3.3245,19.33449-11.4699,66.78169-47.4421,98.83849-72.4136,17.2944-13.472,30.1094-23.7421,31.6138-25.2357,13.5403-13.4424,14.1349-25.4249,12.2691-31.7308Z" style="fill:#263238;"></path></g><path d="M340.20309,321.6922c-.01509,.4078-14.3822,24.2533-14.3822,24.2533l21.1159-16.1603,16.5913-27.0707-23.325,18.9777Z" style="opacity:.3;"></path><path d="M368.316,298.8544s-14.89451,25.9134-14.756,25.806c.13849-.1074,13.003-10.1415,13.003-10.1415l14.74119-27.327-12.98819,11.6625Z" style="opacity:.3;"></path></g></g><g><g><path d="M263.20559,115.9183c-.6963-2.037-2.5718-3.7503-4.7239-3.8077-3.3085-.0882-5.7075,3.4153-8.97869,3.9182-2.66911,.4104-5.156-1.2468-7.71181-2.1191-6.62719-2.2619-21.525,8.0811-23.9868,14.6367l1.5223,11.0811c2.2246-3.067,6.7415-3.4036,10.4-2.4186,3.6585,.9848,7.0271,2.9747,10.7659,3.5882,4.15841,.6823,8.58541-.4789,11.8737-3.1141,.8096-.649,1.5973-1.4694,1.7132-2.5004,.1453-1.2937-.8626-2.4936-2.0603-3.0039s-2.5456-.4876-3.8471-.4567c6.2091,.3395,12.4147-3.682,14.6412-9.4881,.7709-2.0101,1.0885-4.2785,.3923-6.3156Z" style="fill:#263238;"></path><path d="M225.87419,119.5593s3.0405,6.5011,1.1783,17.2955c0,0-1.21649-.162-2.1734-.0808-.9568,.0811-1.5256-15.4866-1.5256-15.4866l2.5207-1.7281Z" style="opacity:.3;"></path><g style="opacity:.3;"><path d="M213.44979,125.9621c-.3865-.8259-1.5185-.9155-2.4215-.7884-2.75529,.3877-6.8007,2.4526-7.8185,4.851-.2659,.6265,.1751,1.3217,.8515,1.3972,3.1839,.3556,6.5296-.8687,8.6854-3.2491,.5515-.6089,1.0515-1.4667,.7031-2.2107Z"></path></g><g><path d="M194.2599,111.9979c7.5673-2.6395,14.2661,2.039,18.1267,5.2109,4.1422,4.2938,6.2507,10.1542,5.7933,16.103-.5553,5.549-1.2285,12.2752-4.88089,14.8309-2.05221,1.4863-4.63481,2.0414-7.11661,1.5297l-24.9082-28.0705c3.4417-4.2533,7.911-7.5589,12.9857-9.604Z" style="fill:#263238;"></path><path d="M188.0639,175.8952c1.9491-1.1853,4.814-5.9643,4.7534-8.921l-.7906-9.9722c.0133-.1113,.0253-.2105,.037-.3094l6.9361-2.5844,.00521-.0042c1.83329-1.4763,4.51639-1.1871,5.99259,.6463,.5578,.656,1.0592,.4746,1.1372,1.3322,.0201,.1883-.2466,1.3532-.2532,1.5424-.5911,6.5187,1.5902,10.5674,4.8741,13.8593l-6.2858,9.1932c-8.4355-3.5323-16.406-4.7822-16.406-4.7822Z" style="fill:#fdbbb5;"></path><path d="M213.90879,134.5239c-1.57179,12.8005-1.9515,18.2345-8.7436,24.591-10.2254,9.5436-25.3156,5.2134-27.5934-7.7302-1.9576-11.6445,.8743-30.5898,13.5583-35.2664,12.6843-4.6765,24.342,5.5887,22.7787,18.4056Z" style="fill:#fdbbb5;"></path><path d="M218.48979,146.0806c-1.5747,2.6397-4.0929,4.2737-6.3869,4.8116-3.4505,.809-5.1404-4.7445-3.9143-8.1704,1.1042-3.0834,4.5132-5.0837,7.8479-4.3563,3.2853,.7169,4.254,4.6972,2.4533,7.7151Z" style="fill:#fdbbb5;"></path><path d="M211.2373,145.52686l-.021-.00098c-.1377-.01123-.23975-.13184-.22852-.26953,.10693-1.30029,.73828-2.53076,1.73193-3.37646,.99414-.8457,2.31445-1.27002,3.61035-1.16846,.1377,.01074,.24072,.13086,.22949,.26855-.01074,.13818-.14355,.24463-.26855,.22949-1.17041-.09033-2.35254,.29053-3.24707,1.05127-.89404,.76025-1.46191,1.86719-1.55811,3.03662-.01074,.13086-.12012,.22949-.24854,.22949Z" style="opacity:.2;"></path><path d="M197.6257,138.426c-.0848,1.3733-.8465,2.4898-1.701,2.4941-.8541,.0046-1.4774-1.1045-1.3923-2.4775,.0848-1.3728,.8462-2.4895,1.7005-2.4939,.8541-.0046,1.4775,1.1043,1.3928,2.4773Z" style="fill:#263238;"></path><path d="M184.9906,138.2537c-.0851,1.3302-.8448,2.4127-1.6963,2.4174-.8514,.0044-1.4729-1.0699-1.388-2.4008,.0852-1.3302,.8447-2.4126,1.6964-2.417,.8515-.005,1.4729,1.0701,1.3879,2.4004Z" style="fill:#263238;"></path><path d="M199.39189,134.5269c-.16589,.0159-.333-.0348-.4595-.1552-1.972-1.883-4.2346-1.2674-4.2605-1.26-.3356,.0919-.6704-.102-.7416-.4439-.0703-.3413,.1474-.6955,.4868-.7929,.1184-.0326,2.9578-.8085,5.4047,1.5295,.2438,.2329,.2424,.6387-.0025,.9061-.1187,.1285-.2724,.2016-.4274,.2164Z" style="fill:#263238;"></path><path d="M179.9686,132.6023c-.13-.0459-.2374-.145-.2927-.2882-.1138-.296,.0366-.6673,.335-.829,2.9938-1.6228,5.1744-.3206,5.2661-.263,.2588,.1593,.3162,.5289,.1277,.8262-.1876,.2968-.5493,.4083-.8082,.2509-.0846-.0523-1.7925-1.0338-4.1728,.257-.154,.0833-.3176,.095-.4551,.0461Z" style="fill:#263238;"></path><path d="M187.6282,137.5354s-2.1061,4.8294-4.4448,7.824c-.4087,.5235-.1725,1.3004,.4469,1.5392,1.5945,.615,3.4792,.1098,3.4792,.1098l.5187-9.473Z" style="fill:#f54948;"></path><path d="M196.8752,136.0745l-2.9694-.7499s1.5957,2.2476,2.9694,.7499Z" style="fill:#263238;"></path><path d="M183.9268,135.8904l-2.9695-.7499s1.5956,2.2473,2.9695,.7499Z" style="fill:#263238;"></path><path d="M187.2964,150.6381c.9448,1.2998,2.1323,3.8522,2.1323,3.8522,.251-.0658,.5014-.1317,.748-.2106,3.3768-.9793,4.6197-2.5493,4.9734-3.9928,.1907-.7901,.1053-1.5493-.0425-2.1459-.1636-.6913-.4381-1.147-.4381-1.147-1.4799,1.5886-4.5575,2.7441-6.2272,3.2922-.6966,.2368-1.1459,.3519-1.1459,.3519Z" style="fill:#263238;"></path><path d="M188.4423,150.2862l.6583,1.1195c3.1781-.93,5.291-2.0114,6.007-3.2647-.1636-.6913-.4381-1.147-.4381-1.147-1.4799,1.5886-4.5575,2.7441-6.2272,3.2922Z" style="fill:#fff;"></path><path d="M190.1767,154.2797c3.3768-.9793,4.6197-2.5493,4.9734-3.9928-1.1376,.3781-2.4675,.9606-3.5339,1.8307-.818,.6619-1.2281,1.4367-1.4395,2.1621Z" style="fill:#f54948;"></path><g><path d="M177.663,135.3455c4.2418-15.8358,16.095-16.5736,22.71629-15.1487l-4.6808-6.0422c-21.7446,1.0508-18.0355,21.1909-18.0355,21.1909Z" style="fill:#263238;"></path><path d="M200.37929,120.1968l2.83171,3.6553c-.09051-1.0725-.11911-2.069-.05971-2.9394,0,0-1.0766-.351-2.772-.7159Z" style="fill:#263238;"></path><path d="M203.211,123.8521c.65669,7.7819,4.73859,19.764,4.73859,19.764,0,0,.9985-4.6286,6.3759-5.4167l-11.11449-14.3473Z" style="fill:#263238;"></path></g><path d="M185.6763,115.9817c-3.0907,2.424-5.3289,5.7692-6.3905,9.5509-.2794,2.7912,3.3189,5.1893,3.3189,5.1893l5.2504-5.6226-.5353,5.3473c7.6839-.0735,15.6697,3.7556,15.6662-9.2338l-3.48021-7.9912s-11.0885,.8266-13.8295,2.7601Z" style="fill:#263238;"></path></g><path d="M201.54369,128.7848c4.6056,1.5031,2.8329,16.765,2.8329,16.765l4.1413-.8687s-.1696-4.9336,4.3454-5.8848c6.4882-1.3671,7.47971,3.5708,5.6434,7.4598-.9043,1.9151,2.7272,.3435,4.8805-3.8383s3.30881-16.3797-.1407-23.3575c-2.5369-5.1317-8.1414-9.3408-17.4021-11.017-9.2606-1.6763-28.9823,2.5477-30.891,18.0594,0,0-.0356,.9582,2.0519,1.5726,1.8818,.5537,24.5384,1.1095,24.5384,1.1095Z" style="fill:#FFC72C;"></path><path d="M201.54369,128.7848c4.6056,1.5031,2.8329,16.765,2.8329,16.765l4.1413-.8687s-.1696-4.9336,4.3454-5.8848c6.4882-1.3671,7.47971,3.5708,5.6434,7.4598-.9043,1.9151,2.7272,.3435,4.8805-3.8383s3.30881-16.3797-.1407-23.3575c-2.5369-5.1317-8.1414-9.3408-17.4021-11.017-9.2606-1.6763-28.9823,2.5477-30.891,18.0594,0,0-.0356,.9582,2.0519,1.5726,1.8818,.5537,24.5384,1.1095,24.5384,1.1095Z" style="opacity:.3;"></path><path d="M204.37659,145.5498s.599,10.5659-3.538,15.168c-2.3687,2.6348-12.8895,2.8307-12.8895,2.8307l1.1172,.4379s12.2535,4.5365,17.8101-6.6038c0,0,7.1384-2.2371,12.853-10.8604l-.9609-.9651s-3.2937,4.8284-11.5279,8.0961l1.2773-8.9721-4.1413,.8687Z" style="fill:#263238;"></path></g><path d="M212.67839,130.4684c-.0281,.7567-1.3081,1.3233-2.8589,1.2656s-2.7852-.7178-2.7571-1.4744c.0282-.7567,1.3082-1.3233,2.859-1.2656s2.7852,.7178,2.757,1.4744Z" style="opacity:.3;"></path><g style="opacity:.2;"><path d="M200.84079,143.1474c.3053,.2327,.3585,.6761,.4333,1.0526,.22791,1.1464,.2328,2.3366,.0141,3.4847-.1207,.6342-.3798,1.337-.982,1.5701-.6874,.2662-1.43319-.2262-1.9241-.7762-.8628-.9665-1.4162-2.2051-1.5603-3.4926-.0508-.4527-.0478-.9308,.1561-1.338,.2268-.4528,.6784-.7603,1.1579-.9229,0,0,1.7305-.3203,2.705,.4223Z" style="fill:#f54948;"></path></g><g style="opacity:.2;"><path d="M181.4966,144.8836c.3054,.2326,.3586,.676,.4334,1.0526,.2278,1.1463,.2327,2.3365,.0141,3.4846-.1208,.6343-.3799,1.337-.982,1.5701-.6875,.2662-1.4333-.2262-1.9242-.7762-.8628-.9665-1.4161-2.205-1.5603-3.4925-.0507-.4527-.0478-.9309,.1562-1.3381,.2268-.4528,.6784-.7602,1.1578-.9229,0,0,1.7305-.3203,2.705,.4224Z" style="fill:#f54948;"></path></g><path d="M177.0987,129.5597c-1.11-.0412-2.0741,.9527-2.2067,2.2921-.3457,3.49-.7653,9.8199,.4772,11.783,1.7466,2.7594,7.9046,3.0255,9.4975-.1315,1.5929-3.1571,1.9194-3.8636,1.9194-3.8636,0,0,.3421,1.7028,2.3267,4.6435,1.8989,2.8139,5.5317,2.8385,9.4684,.3522,3.93681-2.4863,5.8726-6.1243,5.8726-6.1243l-.2097-7.9418-27.1454-1.0096Z" style="fill:#FFC72C; opacity:.5;"></path><polygon points="204.24409 130.5693 225.43189 130.9427 224.86649 137.3869 204.434 139.0426 204.24409 130.5693" style="fill:#FFC72C;"></polygon><path d="M188.0639,175.8952s3.376-4.2522,3.9978-7.4309c0,0,7.309-.0022,10.291-1.5732s4.0091-2.6431,3.9857-2.7324c-.0233-.0894,2.2903,5.9039,4.5705,7.2582l-6.439,9.2605s-8.7308-2.849-16.406-4.7822Z" style="fill:#263238;"></path><path d="M188.0651,129.9676l-13.509,9.4362s.3121,3.6235,.8131,4.231l18.7275-13.4429-6.0316-.2243Z" style="fill:#fff; opacity:.2;"></path><path d="M175.7105,117.87097c4.02213-6.09585,10.62397-10.21778,17.85349-11.20847,.47605-.06523,.27338-.78799-.19938-.72321-7.42123,1.01696-14.17973,5.30596-18.30171,11.55313-.26658,.40403,.38263,.78012,.6476,.37854h0Z" style="fill:#FFC72C;"></path><path d="M195.9352,106.2072c.8339-.0186,1.6678-.0371,2.5017-.0557,.19597-.00437,.38421-.16935,.375-.375-.00893-.19943-.16489-.37969-.375-.375-.8339,.0186-1.6678,.0371-2.5017,.0557-.19597,.00437-.38421,.16935-.375,.375,.00893,.19943,.16489,.37969,.375,.375h0Z" style="fill:#FFC72C;"></path></g></g></g><g id="freepik--Speed_lines--inject-63"><g><path d="M303.76228,227.4749c16.20884-5.8222,31.83459-13.23801,46.57263-22.15187,4.21143-2.54716,8.34651-5.21785,12.40715-7.99893,.3958-.27108,.02108-.9213-.37854-.6476-14.11954,9.67029-29.18206,17.95173-44.93252,24.64868-4.56922,1.94279-9.19542,3.74809-13.8681,5.42651-.45089,.16196-.25644,.88694,.19938,.72321h0Z" style="fill:#263238;"></path><path d="M321.77158,213.4345c16.83585-6.71012,32.45586-16.24511,46.11417-28.15894,.36441-.31786-.16788-.84649-.53033-.53033-13.55442,11.8232-29.07453,21.30662-45.78322,27.96606-.44297,.17655-.24976,.90222,.19938,.72321h0Z" style="fill:#263238;"></path></g></g></svg>
